<mxfile host="app.diagrams.net" modified="2021-06-21T20:54:03.893Z" agent="5.0 (Windows NT 10.0; Win64; x64) AppleWebKit/537.36 (KHTML, like Gecko) Chrome/91.0.4472.114 Safari/537.36" etag="NTCb7YxA-7SAAUNsgRN5" version="14.8.0" type="github">
  <diagram id="mr0ScZVmez5Wdu0t1VuP" name="Page-1">
    <mxGraphModel dx="1108" dy="1550" grid="1" gridSize="10" guides="1" tooltips="1" connect="1" arrows="1" fold="1" page="1" pageScale="1" pageWidth="850" pageHeight="1100" math="0" shadow="0">
      <root>
        <mxCell id="0" />
        <mxCell id="1" parent="0" />
        <mxCell id="WyjryQDbOZI5yKkyuquV-2" value="" style="whiteSpace=wrap;html=1;aspect=fixed;" parent="1" vertex="1">
          <mxGeometry x="230" y="-840" width="430" height="430" as="geometry" />
        </mxCell>
        <mxCell id="WyjryQDbOZI5yKkyuquV-1" value="Actor" style="shape=umlActor;verticalLabelPosition=bottom;verticalAlign=top;html=1;outlineConnect=0;" parent="1" vertex="1">
          <mxGeometry x="50" y="-680" width="30" height="60" as="geometry" />
        </mxCell>
        <mxCell id="_5LFbXUgjsJOY9XrzOKf-1" value="&lt;font face=&quot;Times New Roman&quot; style=&quot;font-size: 14px&quot;&gt;Parrainage&lt;/font&gt;" style="text;html=1;strokeColor=none;fillColor=none;align=center;verticalAlign=middle;whiteSpace=wrap;rounded=0;" vertex="1" parent="1">
          <mxGeometry x="410" y="-840" width="40" height="20" as="geometry" />
        </mxCell>
        <mxCell id="_5LFbXUgjsJOY9XrzOKf-3" value="Log in" style="ellipse;whiteSpace=wrap;html=1;" vertex="1" parent="1">
          <mxGeometry x="260" y="-790" width="90" height="50" as="geometry" />
        </mxCell>
        <mxCell id="_5LFbXUgjsJOY9XrzOKf-5" value="fill out the form" style="ellipse;whiteSpace=wrap;html=1;" vertex="1" parent="1">
          <mxGeometry x="260" y="-710" width="90" height="50" as="geometry" />
        </mxCell>
        <mxCell id="_5LFbXUgjsJOY9XrzOKf-8" value="See list" style="ellipse;whiteSpace=wrap;html=1;" vertex="1" parent="1">
          <mxGeometry x="260" y="-620" width="90" height="50" as="geometry" />
        </mxCell>
        <mxCell id="_5LFbXUgjsJOY9XrzOKf-9" value="Log out" style="ellipse;whiteSpace=wrap;html=1;" vertex="1" parent="1">
          <mxGeometry x="260" y="-520" width="90" height="50" as="geometry" />
        </mxCell>
        <mxCell id="_5LFbXUgjsJOY9XrzOKf-15" value="" style="endArrow=none;html=1;exitX=0;exitY=0.5;exitDx=0;exitDy=0;entryX=0;entryY=0.5;entryDx=0;entryDy=0;" edge="1" parent="1" source="_5LFbXUgjsJOY9XrzOKf-8" target="_5LFbXUgjsJOY9XrzOKf-9">
          <mxGeometry width="50" height="50" relative="1" as="geometry">
            <mxPoint x="490" y="-660" as="sourcePoint" />
            <mxPoint x="540" y="-710" as="targetPoint" />
            <Array as="points">
              <mxPoint x="60" y="-650" />
            </Array>
          </mxGeometry>
        </mxCell>
        <mxCell id="_5LFbXUgjsJOY9XrzOKf-16" value="" style="endArrow=none;html=1;exitX=0;exitY=0.5;exitDx=0;exitDy=0;entryX=0;entryY=0.5;entryDx=0;entryDy=0;" edge="1" parent="1" source="_5LFbXUgjsJOY9XrzOKf-5" target="_5LFbXUgjsJOY9XrzOKf-3">
          <mxGeometry width="50" height="50" relative="1" as="geometry">
            <mxPoint x="490" y="-660" as="sourcePoint" />
            <mxPoint x="540" y="-710" as="targetPoint" />
            <Array as="points">
              <mxPoint x="60" y="-650" />
            </Array>
          </mxGeometry>
        </mxCell>
      </root>
    </mxGraphModel>
  </diagram>
</mxfile>
